<svg width="480" height="485" fill="none" xmlns="http://www.w3.org/2000/svg"><path d="M251.9 484.4c125.59 0 227.4-101.81 227.4-227.4 0-125.589-101.81-227.4-227.4-227.4S24.5 131.411 24.5 257c0 125.59 101.81 227.4 227.4 227.4z" fill="#1E2C31"/><path d="M241.3 387.2c-16.7-1.7-42.9-6.3-72.6-17.8-49.1-19.1-117.5-61.8-164.1-156.6-.2-.5-.5-1-.7-1.4-9.7-20.9-.7-45.7 20.1-55.4 6.8-3.2 14.4-4.5 21.9-3.7 14.5 1.5 27.2 10.6 33.4 23.7 22.4 45.5 53.1 79.9 91.3 102.2 30.9 18.1 59.8 24.2 78.5 26.1 3.2.3 6 .5 8.3.6v-.7l7.9.8 6.1-.2 4.4 83-7 .3c-2.7.3-12.7.6-27.5-.9z" fill="#EBE4DF"/><path d="M247.5 256.3c-13.9-.9-23.2-.3-25.7 0l-6.5.6 7 77.1 5.7-.4 7.4.5-.1-.7c2.1 0 4.7.1 7.7.3 17.5 1.2 44.6 5.8 74 21.5 36.3 19.4 66.2 50.3 88.6 91.9 6.2 12 18.4 20 31.9 20.9 7 .5 14-1 20.2-4.2 19-9.8 26.5-33.2 16.8-52.2-.2-.4-.5-.9-.7-1.3-46.7-86.5-111.8-123.8-158.3-139.9-27.8-9.8-52.3-13-68-14.1z" fill="#EBE4DF"/><path d="M251.9 484.4c40.2 0 78-10.4 110.7-28.7l-5-57.7-6.7-56.7c-5.5-46.8-41.1-82.1-83.9-83.2l-34.1-1c-42.8-1.1-80.2 32.2-88.2 78.8L130 449.2c35.3 22.2 77.1 35.2 121.9 35.2z" fill="#ECE6E1"/><path d="M290 333.3l20.3.5c4.6.1 8.2 3.9 8.1 8.5l-.5 20.3c-.1 4.6-3.9 8.2-8.5 8.1l-20.3-.5c-4.6-.1-8.2-3.9-8.1-8.5l.5-20.3c.1-4.6 3.9-8.2 8.5-8.1z" fill="#F2773F"/><path opacity=".3" d="M370.197 193.338c1.846-69.449-49.378-127.15-114.411-128.878-65.034-1.728-119.249 53.172-121.094 122.621-1.846 69.45 49.378 127.151 114.411 128.879 65.034 1.727 119.249-53.172 121.094-122.622z" fill="#CAC5C0"/><path d="M255.817 31.972l-2.869 48.413 11.479.68 2.869-48.412-11.479-.68zM134.9 221.3l-16.7-4.4c-5.7-1.5-9.9-6.4-10.4-12.3l-1.4-14.7c-.5-5.9 2.7-11.5 8-14l15.6-7.4 4.9 52.8zm230.3 13.6l17-2.4c5.9-.8 10.6-5.2 11.8-11l3.1-14.6c1.2-5.8-1.3-11.7-6.3-14.9l-14.5-9.1-11.1 52z" fill="#726B65"/><path d="M252.6 310.1c69.477 0 125.8-56.323 125.8-125.8S322.077 58.5 252.6 58.5s-125.8 56.323-125.8 125.8 56.323 125.8 125.8 125.8z" fill="#EBE4DF"/><path d="M280.502 22.459C282.7 12.48 276.393 2.61 266.415.412c-9.978-2.197-19.849 4.11-22.047 14.088-2.197 9.978 4.11 19.849 14.088 22.047 9.978 2.197 19.849-4.11 22.046-14.088z" fill="#EC6A3F"/><path opacity=".4" d="M268.438 6.45c.046-1.71-2.2-3.159-5.015-3.233-2.816-.075-5.135 1.251-5.181 2.963-.045 1.711 2.2 3.16 5.016 3.234 2.815.075 5.135-1.252 5.18-2.963z" fill="#fff"/><path d="M262.5 29.5c-7.8-.5-14.8-5-18.5-11.9-.4 10.2 7.5 18.8 17.7 19.2 9.1.4 17-5.9 18.8-14.8-4.6 5.1-11.2 7.9-18 7.5z" fill="#DC5C3D"/><path opacity=".3" d="M401.1 193.9s-141 92.9-302-1.7l10.6 143.5 335.1-45-43.7-96.8z" fill="#EBE4DF"/><path d="M354.3 204.2c-2.4 41.4-51 83.7-107.6 80.3-56.6-3.4-99.8-51.1-97.4-92.4 2.4-41.3 6.8-74.7 106.9-68.8 95.6 5.7 100.5 39.6 98.1 80.9z" fill="#A2B8C5"/><path d="M188.6 263.5c132.3 24.3 155.5-73.2 159.5-104.5-10.2-19-35-32.3-91.9-35.7-100.2-5.9-104.5 27.5-106.9 68.8-1.5 25.2 14 52.9 39.3 71.4z" fill="#B2C9D2"/><path opacity=".34" d="M200.9 150.2c6.5-5.9-1.8-16.9-10-13.6-24.2 9.4-30.3 31.8-31.8 56.7-.9 15 4.9 30.9 15.4 44.8.8 1.1 2.3 1.3 3.3.5.8-.6 1.1-1.6.9-2.5-6.7-30.8-6.3-59.8 22.2-85.9z" fill="#EEF2F6"/><path opacity=".26" d="M287.1 163.6c.1.5.2 1 .4 1.5-.1-.6-.3-1-.4-1.5 0 .1 0 .1 0 0z" fill="#3E545D"/><path fillRule="evenodd" clip-rule="evenodd" d="M433.5 256.3l-3.7 10.2-10.2 3.7 10.2 3.7 3.7 10.2 3.7-10.2 10.2-3.7-10.2-3.7-3.7-10.2z" fill="#9281A5"/><path fillRule="evenodd" clip-rule="evenodd" d="M99.4 123.6l-3.3 9.1L87 136l9.1 3.3 3.3 9.1 3.3-9.1 9.1-3.3-9.1-3.3-3.3-9.1z" fill="#BAD1D9"/><path fillRule="evenodd" clip-rule="evenodd" d="M99.4 359.9l-2.9 8-8 2.9 8 2.9 2.9 8 2.9-8 8-2.9-8-2.9-2.9-8z" fill="#F59162"/></svg>